<?xml version="1.0" standalone="no"?>
<!DOCTYPE svg PUBLIC "-//W3C//DTD SVG 20010904//EN"
 "http://www.w3.org/TR/2001/REC-SVG-20010904/DTD/svg10.dtd">
<svg version="1.0" xmlns="http://www.w3.org/2000/svg"
 width="173.000000pt" height="174.000000pt" viewBox="0 0 173.000000 174.000000"
 preserveAspectRatio="xMidYMid meet">
<metadata>
Created by potrace 1.15, written by Peter Selinger 2001-2017
</metadata>
<g transform="translate(0.000000,174.000000) scale(0.100000,-0.100000)"
fill="#fff" stroke="none">
<path d="M701 1690 c-170 -36 -355 -137 -451 -246 -16 -19 -39 -34 -50 -34
-15 0 -20 -7 -20 -26 0 -14 -18 -55 -40 -92 -22 -37 -55 -109 -72 -162 -31
-90 -32 -102 -32 -250 0 -148 1 -160 32 -250 17 -53 50 -125 72 -162 l40 -67
0 -170 0 -171 670 0 670 0 0 171 0 170 39 64 c21 35 53 108 72 162 32 94 33
104 33 253 1 150 0 158 -33 253 -19 54 -51 127 -72 162 -22 35 -39 75 -39 89
0 19 -5 26 -20 26 -11 0 -34 15 -50 34 -76 86 -219 175 -350 218 -83 27 -112
31 -225 34 -71 2 -150 -1 -174 -6z m322 -46 c111 -24 260 -101 337 -173 l65
-60 -575 0 -575 0 64 60 c76 71 212 142 322 169 95 24 265 26 362 4z m-773
-282 c0 -5 12 -15 28 -22 22 -11 24 -14 10 -17 -10 -3 -18 -8 -18 -11 0 -7 70
-32 90 -32 5 0 37 -18 72 -40 34 -23 74 -44 88 -48 35 -9 -145 -28 -232 -24
l-68 4 0 83 c0 46 3 90 6 99 6 17 24 22 24 8z m568 -4 c-35 -28 -24 -158 13
-158 7 0 9 -3 6 -6 -4 -4 -13 -1 -22 6 -8 7 -22 10 -31 6 -8 -3 -28 1 -44 9
-16 8 -45 15 -65 15 -20 0 -54 9 -75 20 -22 11 -80 31 -129 44 -48 13 -99 30
-112 37 -13 7 -42 18 -64 25 -34 11 2 13 249 13 234 1 287 -1 274 -11z m587
-2 c-22 -7 -51 -18 -64 -25 -13 -7 -64 -24 -112 -37 -49 -13 -107 -33 -129
-44 -21 -11 -55 -20 -75 -20 -20 0 -49 -7 -65 -15 -16 -8 -36 -12 -44 -9 -9 4
-23 1 -31 -6 -9 -7 -18 -10 -22 -6 -3 3 -1 6 6 6 37 0 48 130 13 158 -13 10
40 12 274 11 247 0 283 -2 249 -13z m65 -85 l0 -99 -62 -4 c-83 -4 -262 15
-228 24 14 4 54 25 88 48 35 22 67 40 72 40 20 0 90 25 90 32 0 3 -8 8 -17 11
-15 3 -13 6 10 17 15 7 27 17 27 22 0 4 5 8 10 8 6 0 10 -40 10 -99z m-1291
-393 l-1 -403 -34 70 c-72 149 -94 345 -58 508 14 62 80 227 90 227 2 0 4
-181 3 -402z m1431 188 c42 -165 21 -366 -54 -521 l-34 -70 0 405 0 405 34
-70 c18 -38 43 -106 54 -149z m-1347 77 c4 -3 -1 -12 -11 -19 -14 -11 -8 -12
43 -9 33 2 92 -2 130 -10 39 -7 104 -11 145 -10 41 2 85 4 98 4 22 1 31 25 12
34 -6 3 -5 4 2 3 7 -1 20 -30 29 -63 9 -33 21 -68 26 -79 4 -10 7 -55 5 -99
-5 -91 -5 -141 1 -415 2 -107 7 -220 12 -250 7 -53 6 -56 -24 -82 -37 -33 -59
-34 -134 -9 -113 39 -199 93 -290 181 l-87 85 0 373 c0 354 1 372 18 372 10 0
22 -3 25 -7z m1207 -372 l0 -378 -79 -75 c-83 -80 -174 -137 -278 -175 -82
-30 -106 -29 -144 4 -30 27 -31 30 -24 83 12 85 21 520 14 665 -3 44 0 89 4
99 5 11 17 46 26 79 9 33 22 62 29 63 7 1 8 0 2 -3 -19 -9 -10 -33 13 -34 12
0 56 -2 97 -4 41 -1 107 3 145 10 39 8 97 12 130 10 51 -3 57 -2 43 9 -18 14
-14 26 9 26 11 0 13 -70 13 -379z m-607 -183 c4 -51 12 -138 18 -193 15 -118
17 -223 6 -247 -6 -12 -3 -18 10 -21 10 -3 -11 -5 -47 -5 -36 0 -57 2 -47 5
13 3 16 9 10 21 -11 23 -8 138 6 252 6 52 14 137 17 188 4 50 10 92 14 92 4 0
10 -42 13 -92z m-474 -387 c34 -23 81 -51 104 -61 l42 -20 -157 0 -158 0 0
113 0 113 53 -51 c29 -28 81 -71 116 -94z m1081 29 l0 -110 -152 0 -153 0 42
20 c62 28 151 91 208 147 28 27 51 50 53 51 1 1 2 -47 2 -108z"/>
<path d="M689 725 c-15 -33 -32 -78 -39 -100 -13 -40 -42 -89 -80 -135 -11
-14 -31 -62 -45 -107 -14 -44 -32 -87 -40 -93 -9 -8 -31 -11 -55 -7 -22 3 -40
1 -40 -3 0 -10 49 -50 61 -50 5 0 18 -9 29 -20 23 -23 40 -19 40 11 0 29 64
150 94 178 14 14 26 30 26 37 0 7 21 43 46 81 l46 68 -9 100 -8 100 -26 -60z"/>
<path d="M986 740 c-3 -14 -7 -56 -9 -94 -3 -67 -2 -71 40 -133 24 -36 43 -70
43 -77 0 -7 12 -23 26 -37 30 -28 94 -149 94 -178 0 -30 17 -34 40 -11 11 11
24 20 29 20 12 0 61 40 61 50 0 4 -18 6 -40 3 -41 -6 -80 15 -80 42 0 30 -44
144 -69 175 -44 57 -57 82 -80 150 -12 36 -28 76 -36 90 l-13 25 -6 -25z"/>
</g>
</svg>
